<mxfile host="app.diagrams.net" modified="2024-02-11T15:28:28.264Z" agent="Mozilla/5.0 (Windows NT 10.0; Win64; x64) AppleWebKit/537.36 (KHTML, like Gecko) Chrome/121.0.0.0 Safari/537.36" version="23.1.2" etag="ECtFTr0g9dAGXb4UfO-v" type="github">
  <diagram name="Page-1" id="EBe46AkBR6Z2A5fRa2pF">
    <mxGraphModel>
      <root>
        <mxCell id="0" />
        <mxCell id="1" parent="0" />
      </root>
    </mxGraphModel>
  </diagram>
</mxfile>
